<svg xmlns="http://www.w3.org/2000/svg" xmlns:xlink="http://www.w3.org/1999/xlink" width="400" zoomAndPan="magnify" viewBox="0 0 300 299.999988" height="400" preserveAspectRatio="xMidYMid meet" version="1.0"><path fill="#000000" d="M 150 4.855469 C 67.164062 4.855469 0 72.019531 0 154.855469 C 0 225.144531 48.398438 283.957031 113.648438 300.230469 C 112.949219 298.207031 112.5 295.855469 112.5 292.945312 L 112.5 267.308594 C 106.414062 267.308594 96.210938 267.308594 93.648438 267.308594 C 83.386719 267.308594 74.261719 262.894531 69.835938 254.695312 C 64.925781 245.582031 64.074219 231.644531 51.898438 223.121094 C 48.289062 220.28125 51.039062 217.042969 55.199219 217.480469 C 62.886719 219.65625 69.261719 224.933594 75.261719 232.757812 C 81.238281 240.59375 84.050781 242.371094 95.210938 242.371094 C 100.625 242.371094 108.726562 242.058594 116.351562 240.855469 C 120.449219 230.445312 127.539062 220.855469 136.199219 216.332031 C 86.25 211.195312 62.414062 186.34375 62.414062 152.605469 C 62.414062 138.082031 68.601562 124.03125 79.113281 112.195312 C 75.664062 100.445312 71.324219 76.480469 80.4375 67.355469 C 102.914062 67.355469 116.5 81.933594 119.761719 85.871094 C 130.960938 82.03125 143.261719 79.855469 156.1875 79.855469 C 169.136719 79.855469 181.488281 82.03125 192.710938 85.894531 C 195.9375 81.980469 209.539062 67.355469 232.0625 67.355469 C 241.210938 76.496094 236.824219 100.558594 233.335938 112.28125 C 243.789062 124.09375 249.9375 138.105469 249.9375 152.605469 C 249.9375 186.320312 226.136719 211.15625 176.261719 216.320312 C 189.988281 223.480469 200 243.605469 200 258.769531 L 200 292.945312 C 200 294.246094 199.710938 295.183594 199.5625 296.292969 C 258.011719 275.808594 300 220.308594 300 154.855469 C 300 72.019531 232.835938 4.855469 150 4.855469 Z M 150 4.855469 " fill-opacity="1" fill-rule="nonzero"/></svg>